<svg width="500" height="164" viewBox="0 0 500 164" fill="none" xmlns="http://www.w3.org/2000/svg">
<path fill-rule="evenodd" clip-rule="evenodd" d="M249.816 163.993H4.30814C4.12334 163.993 3.93839 163.995 3.7533 163.997L3.53658 163.998L3.28894 164H3.10713C3.03161 164 2.95609 163.999 2.88058 163.998C2.77742 163.997 2.6744 163.994 2.57138 163.991L2.4346 163.986C2.29638 163.98 2.15832 163.972 2.02053 163.96C0.716501 163.855 0.125612 163.247 0.0188905 161.977C0.0144734 161.922 0.0109113 161.866 0.00820404 161.811C0.00506935 161.748 0.00307455 161.685 0.00179218 161.622C0.000224833 161.546 -0.000202624 161.469 8.23472e-05 161.392C0.000367319 161.294 0.00179218 161.196 0.00321704 161.098L0.00364449 161.068L0.00592427 160.913L0.00706415 160.783L0.00734912 160.703V3.32522C0.00734912 3.23437 0.00663669 3.14311 0.00592427 3.05172C0.00421444 2.83955 0.00207715 2.62657 0.00734912 2.41536C0.0837215 0.643086 0.712796 0.0498355 2.57338 0.00617819C3.01936 -0.00470214 3.46163 0.00617819 3.90776 0.00617819H495.878C495.987 0.00617819 496.097 0.00549817 496.207 0.00468214L496.381 0.0031861C496.785 -0.000622018 497.189 -0.00443013 497.593 0.0135224C499.034 0.0862846 499.816 0.76685 499.968 2.10962C499.972 2.1409 499.975 2.17218 499.978 2.20346C499.984 2.27282 499.989 2.34219 499.992 2.41168C499.997 2.52198 499.999 2.63269 500 2.74353C500 2.88715 499.998 3.03118 499.996 3.17521C499.994 3.30523 499.991 3.43525 499.991 3.56541V160.398V161.125C499.953 163.287 499.267 163.953 497.04 163.989C496.972 163.991 496.903 163.992 496.835 163.992C496.74 163.993 496.645 163.994 496.55 163.994C496.332 163.995 496.114 163.993 495.897 163.992L495.676 163.991C495.559 163.99 495.442 163.989 495.325 163.989H249.816V163.993ZM14.4574 13.7879V150.186H485.32V13.7879H14.4574ZM410.219 36.2056H426.792C429.412 50.9081 432.019 65.5558 434.631 80.2038C434.7 80.2038 434.768 80.2001 434.837 80.1964V69.1915V58.2774C434.837 57.0733 434.836 55.8688 434.835 54.6641L434.834 52.4948C434.833 50.7234 434.833 48.952 434.837 47.1814C434.841 46.0192 434.837 44.8567 434.834 43.6903C434.827 41.226 434.819 38.7445 434.879 36.2128H448.292C448.669 37.7049 448.734 125.468 448.391 127.357C447.064 127.725 437.734 127.845 434.532 127.506C433.372 121.955 432.231 116.391 431.088 110.822L431.085 110.808L431.082 110.794L431.079 110.78L431.076 110.766L431.073 110.752L431.07 110.738L431.067 110.725C428.692 99.141 426.311 87.5299 423.738 75.9422V93.1885V110.285V127.564H410.364C409.959 126.196 409.814 39.1751 410.219 36.2019V36.2056ZM286.948 88.2392V127.477C289.75 127.801 301.058 127.71 302.645 127.346V125.075V38.6475C302.645 38.2217 302.671 37.7959 302.633 37.3737C302.595 36.9771 302.488 36.5841 302.416 36.2238C299.263 35.8999 288.477 36.0236 286.91 36.4458V38.5201L286.91 47.1152C286.911 55.7114 286.912 64.3094 286.906 72.9071C286.906 73.3789 286.878 73.8492 286.851 74.3133C286.837 74.5363 286.824 74.758 286.814 74.9778H278.991V72.7506L278.991 64.0752C278.992 55.5057 278.993 46.9347 278.987 38.3636C278.987 38.0344 278.975 37.7053 278.958 37.3807L278.945 37.1431L278.935 36.9657C278.922 36.7402 278.909 36.5179 278.899 36.3003C276.467 35.9326 264.705 36.0236 263.313 36.3984V127.539H278.991V107.825C278.991 106.713 278.99 105.601 278.99 104.489C278.989 102.265 278.988 100.042 278.991 97.8175C278.992 96.9725 278.993 96.1275 278.995 95.2831L278.997 94.4253L278.999 93.6033C279 93.0276 279.002 92.4523 279.004 91.8778L279.006 91.2172C279.008 90.1739 279.011 89.1335 279.014 88.0972C281.317 87.7442 285.4 87.8097 286.948 88.2392ZM245.378 72.5467H230.917C230.902 72.3403 230.883 72.1341 230.865 71.9282C230.825 71.4992 230.786 71.0713 230.784 70.6435C230.772 64.5769 230.803 58.5139 230.753 52.4473C230.742 51.2501 230.543 50.031 230.242 48.8664C229.861 47.3998 228.725 46.5445 227.451 46.5191C226.025 46.49 224.977 47.2724 224.443 48.8481C224.249 49.4159 224.134 50.0236 224.081 50.6204C224.005 51.4647 224.001 52.3164 224.001 53.1642C223.997 72.3903 223.997 91.6163 224.001 110.842L224 111.146L224 111.265C223.994 112.64 223.987 114.018 224.561 115.322C225.297 116.992 227.314 117.757 228.79 116.778C229.461 116.334 230.033 115.526 230.273 114.773C230.62 113.692 230.749 112.513 230.757 111.374C230.788 106.761 230.784 102.146 230.779 97.5312C230.778 95.8981 230.776 94.2648 230.776 92.6315V90.7137C232.301 90.3134 242.664 90.2115 245.298 90.55C245.304 90.5892 245.311 90.6287 245.317 90.6686C245.327 90.7271 245.338 90.7862 245.349 90.8461L245.368 90.9486C245.403 91.1326 245.439 91.3217 245.462 91.5124C245.465 91.5431 245.469 91.574 245.472 91.6048L245.475 91.6465L245.479 91.701C245.483 91.76 245.485 91.8192 245.485 91.8782C245.485 98.7309 245.485 105.584 245.432 112.436C245.409 115.202 244.677 117.848 243.438 120.326C241.227 124.748 237.41 127.255 232.473 128.249C228.492 129.049 224.497 128.94 220.6 127.852C213.916 125.985 210.073 121.582 208.735 115.151C208.415 113.619 208.304 112.025 208.3 110.46C208.285 99.4028 208.284 88.3466 208.282 77.2903C208.282 73.0531 208.281 68.8157 208.28 64.5784C208.279 60.7677 208.277 56.957 208.274 53.1461C208.274 50.3876 208.705 47.72 209.772 45.1544C211.728 40.4452 215.304 37.4028 220.36 35.9544C224.455 34.7826 228.633 34.6443 232.781 35.5505C239.831 37.0934 243.72 41.4751 245.02 48.1712C245.34 49.8271 245.455 51.5411 245.47 53.2261C245.513 58.0314 245.504 62.8367 245.495 67.6438C245.493 68.7819 245.49 69.9199 245.489 71.0583C245.489 71.3318 245.461 71.6054 245.427 71.9419C245.409 72.1202 245.389 72.3163 245.371 72.5395L245.378 72.5467ZM344.408 127.539H359.529L359.537 127.535C359.644 127.313 359.747 127.201 359.735 127.102C356.079 97.8503 352.415 68.6019 348.743 39.3499C348.703 39.0349 348.656 38.7206 348.604 38.4068C348.554 38.1018 348.501 37.7972 348.446 37.493L348.407 37.2744C348.36 37.0103 348.312 36.7462 348.267 36.4821C348.259 36.4312 348.19 36.3911 348.148 36.3474C348.106 36.3038 348.057 36.2638 347.969 36.1874H330.37C329.848 38.1525 318.589 125.92 318.997 127.663C320.8 127.64 322.609 127.648 324.426 127.656H324.433H324.441H324.448H324.455C327.365 127.669 330.299 127.681 333.275 127.572C333.596 124.162 333.92 120.919 334.202 117.673C334.281 116.747 334.341 115.819 334.401 114.888C334.55 112.572 334.7 110.242 335.163 107.894C336.547 107.894 337.751 107.869 338.952 107.902C339.141 107.907 339.33 107.907 339.52 107.905C339.714 107.902 339.909 107.897 340.104 107.891H340.106H340.107C340.977 107.867 341.853 107.842 342.727 108.069C342.994 111.167 343.259 114.239 343.524 117.304L344.408 127.539ZM338.655 62.7099H338.88L339.718 72.837L340.487 82.1118L341.583 95.3284H336.146C336.26 92.0401 336.552 88.7765 336.844 85.5189V85.5169V85.5149V85.5128V85.5108L336.845 85.4989L336.847 85.4704C337.042 83.2857 337.237 81.1038 337.378 78.9191C337.617 75.1836 337.93 71.4516 338.242 67.7206C338.382 66.0502 338.522 64.3801 338.655 62.7099ZM90.4779 127.59H75.1205C74.7095 124.322 74.4533 121.049 74.196 117.761L74.1956 117.755C73.9421 114.516 73.6875 111.264 73.2828 107.989C71.1606 107.858 69.1048 107.883 67.0214 107.908C66.5596 107.914 66.0964 107.92 65.6308 107.924L64.9145 116.196L64.4203 121.909L63.9342 127.535H49.305C50.3265 119.009 51.4033 110.573 52.4785 102.15C52.6956 100.45 52.9126 98.7498 53.1291 97.0496C54.4101 86.9617 55.676 76.8702 56.9418 66.7786C58.2152 56.6361 59.4886 46.4936 60.7545 36.4239C62.3596 36.0199 76.8591 35.9617 78.9827 36.3474C82.7992 66.644 86.6233 97.0097 90.4779 127.59ZM72.2267 95.3792C71.5089 86.7177 70.8021 78.1748 70.0947 69.6247L69.4092 61.3416C69.0424 66.0014 68.6764 70.6461 68.3108 75.2857L68.2065 76.6108C67.7135 82.8659 67.2212 89.1138 66.7289 95.3792H72.2267ZM107.292 36.1528L107.274 36.154C107.091 36.1679 106.902 36.1823 106.705 36.1946H106.697C106.327 38.9531 106.449 126.149 106.792 127.459C108.954 127.823 120.762 127.728 122.256 127.284V125.188L122.256 120.217C122.256 111.993 122.255 103.766 122.268 95.543C122.268 95.3975 122.258 95.2496 122.249 95.0999C122.212 94.5306 122.173 93.9341 122.653 93.3375C122.945 93.3375 123.243 93.3437 123.545 93.3499C123.955 93.3583 124.371 93.3671 124.789 93.3607C125.068 93.3563 125.348 93.3453 125.627 93.323C125.797 93.3098 125.968 93.2973 126.139 93.2853L126.474 93.2622L126.947 93.2311L127.164 93.217C128.869 93.107 130.578 92.9966 132.23 92.6498C136.935 91.6635 140.542 89.1852 142.723 84.971C144.133 82.2488 144.724 79.3556 144.74 76.3607C144.782 69.0276 144.778 61.6909 144.74 54.3543C144.732 52.6656 144.656 50.9552 144.366 49.292C143.405 43.7859 140.481 39.619 134.949 37.3992C132.585 36.4493 130.095 36.0671 127.518 36.0782C123.481 36.0988 119.444 36.0961 115.407 36.0934H115.337C113.045 36.0918 110.754 36.0901 108.462 36.0927C108.081 36.0927 107.701 36.1217 107.292 36.1528ZM122.401 81.9869V47.2323L122.405 47.2359C122.861 47.2359 123.295 47.2298 123.716 47.2261C124.089 47.2229 124.453 47.2214 124.813 47.2276C124.991 47.2308 125.168 47.2357 125.345 47.2433C126.98 47.3124 128.097 48.1021 128.54 49.6232C128.807 50.5476 128.982 51.5266 128.986 52.4801C129.016 60.5955 129.02 68.7147 128.986 76.83C128.982 77.7836 128.791 78.7625 128.517 79.6833C128.044 81.2736 127.06 81.9322 125.303 81.9832C124.667 82.0005 124.033 81.996 123.369 81.9914L122.882 81.9883C122.724 81.9874 122.564 81.9869 122.401 81.9869ZM178.043 87.6641V115.151C180.373 115.283 182.685 115.264 184.994 115.244H184.995C187.457 115.223 189.915 115.202 192.386 115.366V127.324C191.041 127.732 165.965 127.896 162.541 127.532L162.505 127.495L162.475 127.465L162.44 127.43L162.411 127.401C162.402 127.391 162.391 127.38 162.38 127.37C162.343 127.335 162.304 127.298 162.301 127.259C162.29 127.157 162.279 127.055 162.267 126.953L162.264 126.926C162.229 126.616 162.194 126.307 162.194 125.996C162.198 96.2781 162.205 66.5639 162.224 36.846C162.224 36.7314 162.274 36.6167 162.322 36.5079C162.344 36.4579 162.365 36.4091 162.381 36.362C163.883 36.0199 190.316 35.9689 192.219 36.2964C192.531 37.6393 192.611 45.7948 192.322 48.1349C191.294 48.4505 190.228 48.408 189.161 48.3656C188.664 48.3459 188.168 48.3261 187.674 48.3423C186.943 48.3675 186.21 48.3717 185.478 48.369C185.11 48.3676 184.743 48.3645 184.375 48.3614C183.886 48.3573 183.397 48.3532 182.908 48.3532H178.058V74.9959C178.226 75.0102 178.396 75.0289 178.569 75.048C178.927 75.0876 179.294 75.1281 179.66 75.1305C181.284 75.1383 182.907 75.1377 184.531 75.1372C185.957 75.1368 187.384 75.1364 188.81 75.1415C189.125 75.1415 189.442 75.1576 189.752 75.1777C190.049 75.197 190.341 75.22 190.621 75.2361C190.999 76.6991 191.071 85.3095 190.72 87.4857C188.527 87.6312 186.318 87.6144 184.067 87.5972H184.065C182.094 87.5823 180.092 87.567 178.043 87.6605V87.6641ZM391.418 36.1909H376.114C375.646 37.8213 375.657 126.014 376.118 127.561H391.43C391.895 125.93 391.884 37.7375 391.418 36.1909Z" fill="white"/>
</svg>
