<svg width="100" height="61" viewBox="0 0 100 61" fill="none" xmlns="http://www.w3.org/2000/svg">
<path d="M70.846 15.2841L76.7018 22.1668C77.3768 22.9399 77.9652 23.5745 78.2133 23.938C79.9672 25.6803 80.9479 28.0283 80.9479 30.4802C80.7864 33.3764 78.8941 35.3437 77.1575 37.4552L73.0614 42.2668L70.921 44.7591C70.846 44.8456 70.7941 44.9495 70.7768 45.0648C70.7595 45.1802 70.7768 45.2956 70.8287 45.3994C70.8749 45.5033 70.9556 45.5898 71.0595 45.6533C71.1633 45.7168 71.2787 45.7398 71.3941 45.7341H92.7633C96.0229 45.7341 100.136 48.4802 99.8998 52.6398C99.8998 54.5264 99.1267 56.3437 97.771 57.6821C96.4094 59.0206 94.569 59.7763 92.6537 59.7821H59.1922C56.9883 59.7821 51.0691 60.0187 49.4134 54.9706C49.0614 53.9148 49.0153 52.784 49.2749 51.6994C49.7595 50.1014 50.5211 48.6014 51.5249 47.2629C53.2095 44.7706 55.0326 42.2725 56.8268 39.8552C59.146 36.6879 61.523 33.6245 63.8595 30.3937C63.9403 30.2899 63.9864 30.1572 63.9864 30.0245C63.9864 29.8918 63.9403 29.7591 63.8595 29.6552L55.3557 19.6803C55.3037 19.6053 55.2287 19.5533 55.1422 19.513C55.0614 19.4726 54.9749 19.4495 54.8768 19.4495C54.7787 19.4495 54.6922 19.4726 54.6114 19.513C54.5307 19.5533 54.4557 19.6168 54.398 19.6803C52.1191 22.7091 42.1499 36.1283 40.0268 38.8456C37.9038 41.5629 32.6653 41.7129 29.7634 38.8456L16.4654 25.686C16.3846 25.6053 16.275 25.5418 16.1538 25.5245C16.0384 25.5014 15.9173 25.5129 15.8019 25.5591C15.6923 25.6053 15.6 25.6803 15.5307 25.7841C15.4615 25.8879 15.4269 26.0033 15.4269 26.1187V51.411C15.4615 53.2052 14.9192 54.9648 13.8865 56.4475C12.8538 57.9244 11.3711 59.0494 9.65767 59.6552C8.56152 60.0302 7.39614 60.1456 6.24806 59.984C5.09999 59.8225 4.00384 59.3956 3.06346 58.7321C2.1173 58.0744 1.34423 57.1975 0.81346 56.1821C0.282692 55.1667 0 54.0417 0 52.8994V7.42068C0.0749998 5.78222 0.674999 4.20722 1.71346 2.92068C2.74038 1.63415 4.15961 0.705304 5.76345 0.266844C7.13652 -0.090848 8.5846 -0.090848 9.95767 0.278382C11.3307 0.647612 12.5827 1.363 13.5807 2.36684L34.0211 22.536C34.0845 22.5995 34.1595 22.6456 34.2403 22.6745C34.3211 22.7033 34.4076 22.7149 34.4999 22.7091C34.5865 22.7033 34.6672 22.6745 34.7422 22.6341C34.8172 22.5937 34.8865 22.5303 34.9326 22.4668L49.4537 2.64376C50.1287 1.84184 50.9711 1.18992 51.923 0.73992C52.8749 0.28992 53.9134 0.0533824 54.9749 0.041844H92.7517C93.7844 0.041844 94.8056 0.266844 95.746 0.687997C96.6864 1.10915 97.5287 1.72646 98.2037 2.49376C98.8844 3.26107 99.3921 4.16684 99.6921 5.13606C99.9921 6.11683 100.073 7.13798 99.9344 8.1476C99.669 9.90144 98.7633 11.4995 97.3902 12.6418C96.0171 13.7899 94.2748 14.4072 92.4748 14.3841H71.3191C71.2095 14.3841 71.1056 14.4187 71.0191 14.4707C70.9326 14.5226 70.8576 14.6091 70.8056 14.6957C70.7595 14.788 70.7306 14.8918 70.7364 14.9957C70.7364 15.0995 70.7768 15.1976 70.8402 15.2899H70.8345L70.846 15.2841Z" fill="white"/>
</svg>
