<svg width="100" height="100" viewBox="0 0 100 100" fill="none" xmlns="http://www.w3.org/2000/svg">
<mask id="mask0_2116_3302" style="mask-type:luminance" maskUnits="userSpaceOnUse" x="0" y="0" width="100" height="100">
<path d="M100 0H0V100H100V0Z" fill="white"/>
</mask>
<g mask="url(#mask0_2116_3302)">
<mask id="mask1_2116_3302" style="mask-type:luminance" maskUnits="userSpaceOnUse" x="0" y="0" width="100" height="100">
<path d="M100 0H0V100H100V0Z" fill="white"/>
</mask>
<g mask="url(#mask1_2116_3302)">
<path d="M50.4367 0.00173212C22.4767 -0.228268 -0.228268 22.4767 0.00173212 50.4367C0.236732 77.5867 22.4167 99.7717 49.5617 99.9967C77.5217 100.237 100.237 77.5217 99.9967 49.5617C99.7717 22.4217 77.5867 0.236732 50.4367 0.00173212ZM35.4867 24.8867C38.6867 28.9517 40.6017 34.0967 40.6017 39.6767C40.6017 44.5117 39.1667 49.0117 36.7017 52.7667H19.3667L35.4817 24.8817L35.4867 24.8867ZM88.3367 55.3467V58.9467C88.3367 59.1817 88.2117 59.3817 87.9967 59.4717C86.8217 59.9717 82.9467 61.7717 81.3317 64.0117C77.1717 69.8017 73.9967 78.9017 66.8967 78.9017H37.2717C26.7817 78.9017 18.0067 70.5767 18.0117 59.4867C18.0117 59.2117 18.2467 58.9867 18.5217 58.9867H32.5617C33.0467 58.9867 33.4267 59.3767 33.4267 59.8517V62.5617C33.4267 64.0017 34.5917 65.1717 36.0367 65.1717H46.6867V58.9717H39.4117C43.5967 53.6717 46.0867 46.9817 46.0867 39.6967C46.0867 31.5717 42.9717 24.1617 37.8717 18.6217C40.9567 18.9817 43.9067 19.5967 46.6867 20.4117V18.6867C46.6867 16.8967 48.1367 15.4467 49.9267 15.4467C51.7167 15.4467 53.1667 16.8967 53.1667 18.6867V22.8467C63.1067 27.4867 69.6167 35.1867 69.6167 43.8967C69.6167 49.0067 67.3817 53.7617 63.5267 57.7617C62.7867 58.5267 61.7617 58.9617 60.6867 58.9617H53.1717V65.1517H62.6067C64.6417 65.1517 68.2917 61.2917 70.0217 58.9667C70.0217 58.9667 70.0967 58.8517 70.2967 58.7917C70.4967 58.7317 87.6217 54.8017 87.6217 54.8017C87.9817 54.7017 88.3367 54.9767 88.3367 55.3417V55.3467Z" fill="white"/>
</g>
</g>
</svg>
