<svg width="233" height="21" viewBox="0 0 233 21" fill="none" xmlns="http://www.w3.org/2000/svg">
<path d="M129.369 3.62905V16.8426C129.369 17.2314 129.053 17.5469 128.663 17.5469H127.143C126.753 17.5469 126.437 17.8624 126.437 18.2512V19.7666C126.437 20.1554 126.121 20.4709 125.731 20.4709H118.345C117.955 20.4709 117.638 20.1554 117.638 19.7666V18.2512C117.638 17.8624 117.322 17.5469 116.932 17.5469H115.411C115.021 17.5469 114.705 17.2314 114.705 16.8426V3.62905C114.705 3.24025 115.021 2.92475 115.411 2.92475H116.931C117.321 2.92475 117.637 2.60925 117.637 2.22045V0.704298C117.637 0.3155 117.954 0 118.344 0H125.73C126.12 0 126.436 0.3155 126.436 0.704298V2.21966C126.436 2.60845 126.753 2.92395 127.142 2.92395H128.662C129.052 2.92395 129.369 3.23945 129.369 3.62825L129.369 3.62905ZM126.436 3.62905C126.436 3.24025 126.12 2.92475 125.73 2.92475H118.345C117.955 2.92475 117.638 3.24025 117.638 3.62905V11.6982H120.571V14.623H117.638V16.8434C117.638 17.2322 117.955 17.5477 118.345 17.5477H125.731C126.121 17.5477 126.437 17.2322 126.437 16.8434V8.77425H123.504V11.699H120.571V8.77425H123.504V5.8495H126.437V3.62905H126.436Z" fill="#CCCCCC"/>
<path d="M139.988 15.6416L147.54 5.18169H140.068V2.94922H150.537V4.91309L142.965 15.3935H150.637V17.6264H139.988V15.6416Z" fill="#CCCCCC"/>
<path d="M161.074 13.0167H153.402C153.622 14.9806 154.661 16.0968 156.159 16.0968C157.198 16.0968 158.017 15.5592 158.497 14.6496H160.814C160.095 16.7169 158.417 17.895 156.159 17.895C154.581 17.895 153.342 17.3988 152.463 16.3859C151.584 15.373 151.145 14.0087 151.145 12.3343C151.145 9.08898 152.903 6.62891 156.139 6.62891C157.677 6.62891 158.876 7.1456 159.755 8.17942C160.654 9.19231 161.094 10.5771 161.094 12.3343L161.074 13.0163L161.074 13.0167ZM153.402 11.5695H158.817C158.637 9.52326 157.618 8.42752 156.16 8.42752C154.701 8.42752 153.582 9.60567 153.403 11.5695H153.402Z" fill="#CCCCCC"/>
<path d="M168.986 6.8539L169.106 6.8744V8.90019C168.806 8.83827 168.466 8.79685 168.087 8.79685C166.068 8.79685 164.93 10.0373 164.93 13.1584V17.6238H162.672V6.89532H164.93V8.85919C165.269 8.01155 166.068 6.77148 168.066 6.77148C168.446 6.77148 168.826 6.8334 168.985 6.85433L168.986 6.8539Z" fill="#CCCCCC"/>
<path d="M174.439 6.62891C176.057 6.62891 177.316 7.1456 178.235 8.17942C179.154 9.19231 179.613 10.5566 179.613 12.2724C179.613 13.9882 179.154 15.3525 178.235 16.3654C177.316 17.3783 176.057 17.895 174.439 17.895C172.821 17.895 171.582 17.3783 170.663 16.3654C169.764 15.3525 169.305 13.9882 169.305 12.2724C169.305 10.5566 169.764 9.19231 170.663 8.17942C171.582 7.14603 172.841 6.62891 174.439 6.62891ZM174.459 8.55136C173.62 8.55136 172.94 8.88187 172.401 9.54375C171.862 10.2052 171.602 11.1148 171.602 12.2724C171.602 13.4301 171.862 14.3187 172.381 14.9806C172.92 15.642 173.6 15.973 174.439 15.973C175.278 15.973 175.977 15.642 176.497 14.9806C177.036 14.3191 177.296 13.4096 177.296 12.2724C177.296 11.1353 177.036 10.2052 176.497 9.54375C175.977 8.8823 175.298 8.55136 174.459 8.55136H174.459Z" fill="#CCCCCC"/>
<path d="M181.268 17.6264V2.94922H187.361C190.318 2.94922 192.056 4.37547 192.056 6.77362C192.056 8.19987 191.477 9.25419 190.298 9.93657C191.816 10.5771 192.636 11.7762 192.636 13.4919C192.636 15.993 190.837 17.6264 187.801 17.6264H181.268ZM183.685 5.07835V9.25419H187.301C188.92 9.25419 189.739 8.55131 189.739 7.14556C189.739 5.51263 188.64 5.07835 187.301 5.07835H183.685ZM183.685 11.0319V15.4968H187.441C189.279 15.4968 190.198 14.7734 190.198 13.3058C190.198 11.8381 189.279 11.0319 187.441 11.0319H183.685Z" fill="#CCCCCC"/>
<path d="M200.45 6.8539L200.57 6.8744V8.90019C200.27 8.83827 199.931 8.79685 199.551 8.79685C197.533 8.79685 196.395 10.0373 196.395 13.1584V17.6238H194.137V6.89532H196.395V8.85919C196.734 8.01155 197.533 6.77148 199.531 6.77148C199.911 6.77148 200.291 6.8334 200.45 6.85433V6.8539Z" fill="#CCCCCC"/>
<path d="M209.923 14.8149C209.923 15.9106 210.063 16.944 210.163 17.3369L210.243 17.6264H208.025C207.926 17.275 207.846 16.7993 207.786 16.1587C207.047 17.3164 205.848 17.8954 204.189 17.8954C201.892 17.8954 200.613 16.7583 200.613 14.8358C200.613 13.9058 200.933 13.1615 201.392 12.7272C202.172 11.9829 203.21 11.7348 204.269 11.549C204.469 11.5285 204.709 11.4871 205.009 11.4662C205.628 11.3834 205.907 11.3424 206.367 11.2595C207.206 11.0733 207.726 10.7428 207.726 9.85377C207.726 9.23374 207.206 8.32418 205.548 8.32418C204.19 8.32418 203.39 8.92372 203.211 9.99853H201.033C201.153 8.46894 202.112 6.62891 205.529 6.62891C208.546 6.62891 209.924 8.138 209.924 10.5357V14.8149H209.923ZM202.911 14.7321C202.911 15.7035 203.59 16.2617 204.869 16.2617C206.767 16.2617 207.726 15.0626 207.726 12.8506V12.0444C207.506 12.313 207.047 12.4992 206.667 12.6439C206.487 12.7263 205.907 12.8297 205.728 12.892L205.208 12.9954C204.949 13.0368 204.769 13.0573 204.709 13.0782C203.75 13.2849 202.911 13.6158 202.911 14.7321Z" fill="#CCCCCC"/>
<path d="M219.052 17.626V11.3829C219.052 9.39857 218.353 8.61327 216.934 8.61327C215.196 8.61327 214.197 9.87427 214.197 12.3548V17.626H211.939V6.8975H214.197V8.81995C214.596 7.80706 215.556 6.62891 217.733 6.62891C220.031 6.62891 221.33 7.9104 221.33 10.7838V17.6264H219.052V17.626Z" fill="#CCCCCC"/>
<path d="M233 2.94922V17.6264H230.722V16.0968C229.983 17.2959 228.844 17.8954 227.305 17.8954C224.488 17.8954 222.91 15.4148 222.91 12.2728C222.91 9.13078 224.488 6.62929 227.305 6.62929C228.844 6.62929 229.983 7.22883 230.722 8.4484V2.94922H233ZM230.722 12.2724C230.722 11.0942 230.462 10.1637 229.963 9.52321C229.464 8.88225 228.784 8.55174 227.945 8.55174C227.106 8.55174 226.447 8.88225 225.927 9.52321C225.428 10.1637 225.168 11.0942 225.168 12.2724C225.168 13.4505 225.428 14.381 225.927 15.0215C226.447 15.6621 227.126 15.9725 227.945 15.9725C228.764 15.9725 229.464 15.6625 229.963 15.0215C230.462 14.3806 230.722 13.4505 230.722 12.2724Z" fill="#CCCCCC"/>
<path d="M87.5371 6.81445H89.0675L92.1283 11.966H92.2576L95.3184 6.81445H96.8488L92.8611 13.3024V17.8505H91.5247V13.3024L87.5371 6.81445Z" fill="#999999"/>
<path d="M78.6133 17.8505V6.81445H82.4716C83.2404 6.81445 83.8744 6.94737 84.3738 7.21322C84.8731 7.47547 85.245 7.82932 85.4892 8.27479C85.7335 8.71666 85.8557 9.20703 85.8557 9.7459C85.8557 10.2201 85.7712 10.6117 85.6024 10.9206C85.4371 11.2296 85.218 11.4739 84.945 11.6535C84.6755 11.8331 84.3828 11.966 84.0666 12.0523V12.16C84.4043 12.1816 84.7438 12.3001 85.0851 12.5157C85.4264 12.7312 85.712 13.0402 85.9419 13.4425C86.1718 13.8449 86.2868 14.3371 86.2868 14.919C86.2868 15.4723 86.161 15.9698 85.9096 16.4117C85.6581 16.8536 85.2611 17.2038 84.7187 17.4625C84.1762 17.7212 83.4703 17.8505 82.6009 17.8505H78.6133ZM79.9497 16.665H82.6009C83.4739 16.665 84.0936 16.4961 84.46 16.1584C84.83 15.8172 85.015 15.404 85.015 14.919C85.015 14.5454 84.9198 14.2005 84.7294 13.8844C84.539 13.5647 84.2678 13.3096 83.9157 13.1192C83.5637 12.9252 83.147 12.8282 82.6656 12.8282H79.9497V16.665ZM79.9497 11.6643H82.4285C82.8308 11.6643 83.1937 11.5852 83.517 11.4272C83.8439 11.2691 84.1026 11.0464 84.293 10.759C84.4869 10.4716 84.5839 10.1339 84.5839 9.7459C84.5839 9.26092 84.4151 8.84958 84.0774 8.51189C83.7397 8.17061 83.2044 7.99996 82.4716 7.99996H79.9497V11.6643Z" fill="#999999"/>
<path d="M66.8412 17.8505H63.4355V6.81445H66.9921C68.0626 6.81445 68.9787 7.03539 69.7403 7.47726C70.5019 7.91554 71.0857 8.54602 71.4916 9.36869C71.8976 10.1878 72.1006 11.1685 72.1006 12.3109C72.1006 13.4605 71.8958 14.4502 71.4862 15.2801C71.0767 16.1063 70.4804 16.7422 69.6972 17.1877C68.914 17.6296 67.962 17.8505 66.8412 17.8505ZM64.7719 16.665H66.755C67.6675 16.665 68.4237 16.4889 69.0236 16.1369C69.6236 15.7848 70.0708 15.2837 70.3654 14.6334C70.66 13.9832 70.8073 13.209 70.8073 12.3109C70.8073 11.42 70.6618 10.653 70.3708 10.0099C70.0798 9.3633 69.6451 8.86754 69.0667 8.52267C68.4883 8.1742 67.7681 7.99996 66.9059 7.99996H64.7719V16.665Z" fill="#999999"/>
<path d="M54.3633 17.8505V6.81445H61.0237V7.99996H55.6997V11.7289H60.6788V12.9144H55.6997V16.665H61.1099V17.8505H54.3633Z" fill="#999999"/>
<path d="M44.6621 17.8505V6.81445H48.3911C49.2533 6.81445 49.961 6.96174 50.5142 7.25633C51.0675 7.54731 51.477 7.94787 51.7428 8.458C52.0087 8.96813 52.1416 9.54831 52.1416 10.1985C52.1416 10.8488 52.0087 11.4254 51.7428 11.9283C51.477 12.4313 51.0693 12.8264 50.5196 13.1138C49.97 13.3976 49.2676 13.5395 48.4126 13.5395H45.395V12.3325H48.3695C48.9587 12.3325 49.4329 12.2463 49.7921 12.0738C50.155 11.9014 50.4172 11.6571 50.5789 11.341C50.7441 11.0212 50.8268 10.6404 50.8268 10.1985C50.8268 9.75668 50.7441 9.37049 50.5789 9.03998C50.4136 8.70948 50.1496 8.45441 49.7868 8.27479C49.4239 8.09157 48.9443 7.99996 48.348 7.99996H45.9985V17.8505H44.6621ZM49.8568 12.8929L52.5727 17.8505H51.0208L48.348 12.8929H49.8568Z" fill="#999999"/>
<path d="M35.5918 17.8505V6.81445H42.2522V7.99996H36.9282V11.7289H41.9073V12.9144H36.9282V16.665H42.3384V17.8505H35.5918Z" fill="#999999"/>
<path d="M23.1915 17.8505L20.1738 6.81445H21.5318L23.8381 15.8028H23.9459L26.2954 6.81445H27.8042L30.1537 15.8028H30.2615L32.5678 6.81445H33.9258L30.9081 17.8505H29.5286L27.0929 9.05615H27.0067L24.571 17.8505H23.1915Z" fill="#999999"/>
<path d="M18.9381 12.3388C18.9381 13.5028 18.7279 14.5087 18.3076 15.3565C17.8873 16.2043 17.3107 16.8581 16.5778 17.318C15.845 17.7778 15.0079 18.0077 14.0667 18.0077C13.1255 18.0077 12.2884 17.7778 11.5556 17.318C10.8227 16.8581 10.2461 16.2043 9.82579 15.3565C9.40547 14.5087 9.19531 13.5028 9.19531 12.3388C9.19531 11.1749 9.40547 10.169 9.82579 9.32116C10.2461 8.47334 10.8227 7.81951 11.5556 7.35967C12.2884 6.89984 13.1255 6.66992 14.0667 6.66992C15.0079 6.66992 15.845 6.89984 16.5778 7.35967C17.3107 7.81951 17.8873 8.47334 18.3076 9.32116C18.7279 10.169 18.9381 11.1749 18.9381 12.3388ZM17.6448 12.3388C17.6448 11.3832 17.4849 10.5767 17.1652 9.9193C16.849 9.26188 16.4197 8.76433 15.8773 8.42663C15.3384 8.08894 14.7349 7.9201 14.0667 7.9201C13.3985 7.9201 12.7932 8.08894 12.2507 8.42663C11.7118 8.76433 11.2825 9.26188 10.9628 9.9193C10.6467 10.5767 10.4886 11.3832 10.4886 12.3388C10.4886 13.2944 10.6467 14.1009 10.9628 14.7583C11.2825 15.4158 11.7118 15.9133 12.2507 16.251C12.7932 16.5887 13.3985 16.7575 14.0667 16.7575C14.7349 16.7575 15.3384 16.5887 15.8773 16.251C16.4197 15.9133 16.849 15.4158 17.1652 14.7583C17.4849 14.1009 17.6448 13.2944 17.6448 12.3388Z" fill="#999999"/>
<path d="M0 17.8505V6.81445H3.72897C4.59476 6.81445 5.30247 6.97073 5.85212 7.28327C6.40535 7.59222 6.81489 8.01074 7.08074 8.53883C7.34658 9.06693 7.4795 9.65609 7.4795 10.3063C7.4795 10.9566 7.34658 11.5475 7.08074 12.0792C6.81849 12.6109 6.41254 13.0348 5.86289 13.3509C5.31325 13.6635 4.60912 13.8197 3.75053 13.8197H1.07774V12.6342H3.70742C4.30017 12.6342 4.77617 12.5319 5.13542 12.3271C5.49467 12.1223 5.75512 11.8457 5.91678 11.4972C6.08203 11.1452 6.16466 10.7482 6.16466 10.3063C6.16466 9.86445 6.08203 9.46928 5.91678 9.12081C5.75512 8.77234 5.49287 8.49932 5.13003 8.30173C4.76719 8.10055 4.2858 7.99996 3.68586 7.99996H1.33639V17.8505H0Z" fill="#999999"/>
</svg>
