<svg width="110" height="38" viewBox="0 0 110 38" fill="none" xmlns="http://www.w3.org/2000/svg">
<path d="M13.6106 21.8234V34.0875C13.6106 34.4484 13.3169 34.7412 12.955 34.7412H11.5445C11.1826 34.7412 10.8889 35.034 10.8889 35.3949V36.8014C10.8889 37.1622 10.5952 37.4551 10.2333 37.4551H3.37799C3.01609 37.4551 2.72241 37.1622 2.72241 36.8014V35.3949C2.72241 35.034 2.42874 34.7412 2.06684 34.7412H0.655574C0.293673 34.7412 0 34.4484 0 34.0875V21.8234C0 21.4625 0.293673 21.1697 0.655574 21.1697H2.0661C2.428 21.1697 2.72167 20.8769 2.72167 20.516V19.1088C2.72167 18.7479 3.01534 18.4551 3.37724 18.4551H10.2326C10.5945 18.4551 10.8882 18.7479 10.8882 19.1088V20.5152C10.8882 20.8761 11.1818 21.1689 11.5437 21.1689H12.9543C13.3162 21.1689 13.6098 21.4618 13.6098 21.8226L13.6106 21.8234ZM10.8882 21.8234C10.8882 21.4625 10.5945 21.1697 10.2326 21.1697H3.37799C3.01609 21.1697 2.72241 21.4625 2.72241 21.8234V29.3127H5.44482V32.0274H2.72241V34.0883C2.72241 34.4491 3.01609 34.742 3.37799 34.742H10.2333C10.5952 34.742 10.8889 34.4491 10.8889 34.0883V26.5989H8.16649V29.3135H5.44408V26.5989H8.16649V23.8843H10.8889V21.8234H10.8882Z" fill="#CCCCCC"/>
<path d="M23.4746 32.9718L30.4841 23.2635H23.5489V21.1914H33.2654V23.0142L26.2376 32.7415H33.3581V34.814H23.4746V32.9718Z" fill="#CCCCCC"/>
<path d="M43.0405 30.5363H35.9199C36.1237 32.359 37.0882 33.3951 38.4787 33.3951C39.4428 33.3951 40.2032 32.8961 40.6483 32.0519H42.7991C42.1315 33.9705 40.574 35.064 38.4787 35.064C37.0139 35.064 35.864 34.6035 35.0481 33.6634C34.2322 32.7233 33.8242 31.457 33.8242 29.9029C33.8242 26.8907 35.456 24.6074 38.4599 24.6074C39.8876 24.6074 41.0003 25.087 41.8162 26.0465C42.6505 26.9866 43.0585 28.272 43.0585 29.9029L43.0401 30.5359L43.0405 30.5363ZM35.9199 29.1931H40.9452C40.7785 27.2938 39.8328 26.2768 38.4791 26.2768C37.1254 26.2768 36.0869 27.3703 35.9203 29.1931H35.9199Z" fill="#CCCCCC"/>
<path d="M50.3799 24.8206L50.4909 24.8397V26.7199C50.2128 26.6624 49.8976 26.624 49.5452 26.624C47.6721 26.624 46.6152 27.7753 46.6152 30.6722V34.8167H44.5195V24.8591H46.6152V26.6818C46.9305 25.8951 47.6721 24.7441 49.5264 24.7441C49.8788 24.7441 50.2312 24.8016 50.3795 24.821L50.3799 24.8206Z" fill="#CCCCCC"/>
<path d="M55.4488 24.6113C56.9507 24.6113 58.119 25.0909 58.9721 26.0504C59.8252 26.9906 60.2515 28.2569 60.2515 29.8493C60.2515 31.4418 59.8248 32.7081 58.9721 33.6483C58.119 34.5884 56.9507 35.0679 55.4488 35.0679C53.9468 35.0679 52.7973 34.5884 51.9442 33.6483C51.1099 32.7081 50.6836 31.4418 50.6836 29.8493C50.6836 28.2569 51.1099 26.9906 51.9442 26.0504C52.7973 25.0913 53.9656 24.6113 55.4488 24.6113ZM55.4675 26.3956C54.6888 26.3956 54.0579 26.7024 53.5576 27.3167C53.057 27.9307 52.8157 28.7749 52.8157 29.8493C52.8157 30.9238 53.057 31.7486 53.5389 32.3629C54.0395 32.9769 54.67 33.284 55.4488 33.284C56.2275 33.284 56.8768 32.9769 57.3587 32.3629C57.8593 31.749 58.1006 30.9048 58.1006 29.8493C58.1006 28.7939 57.8593 27.9307 57.3587 27.3167C56.8764 26.7028 56.2459 26.3956 55.4672 26.3956H55.4675Z" fill="#CCCCCC"/>
<path d="M61.7871 34.814V21.1914H67.4429C70.1871 21.1914 71.8005 22.5152 71.8005 24.741C71.8005 26.0648 71.2627 27.0434 70.1687 27.6767C71.5779 28.2712 72.3383 29.3841 72.3383 30.9766C72.3383 33.298 70.6693 34.814 67.8508 34.814H61.7871ZM64.031 23.1676V27.0434H67.3873C68.8893 27.0434 69.6497 26.391 69.6497 25.0862C69.6497 23.5706 68.63 23.1676 67.3873 23.1676H64.031ZM64.031 28.6933V32.8374H67.5172C69.2233 32.8374 70.076 32.166 70.076 30.8038C70.076 29.4416 69.2233 28.6933 67.5172 28.6933H64.031Z" fill="#CCCCCC"/>
<path d="M79.5904 24.8206L79.7015 24.8397V26.7199C79.4234 26.6624 79.1082 26.624 78.7557 26.624C76.883 26.624 75.8262 27.7753 75.8262 30.6722V34.8167H73.7305V24.8591H75.8262V26.6818C76.1414 25.8951 76.883 24.7441 78.7374 24.7441C79.0898 24.7441 79.4422 24.8016 79.5904 24.821V24.8206Z" fill="#CCCCCC"/>
<path d="M88.3792 32.2092C88.3792 33.2262 88.509 34.1853 88.6017 34.5499L88.6761 34.8186H86.6179C86.5252 34.4925 86.4509 34.0509 86.3954 33.4564C85.7093 34.5309 84.5965 35.0683 83.0574 35.0683C80.925 35.0683 79.7383 34.0129 79.7383 32.2286C79.7383 31.3653 80.0348 30.6745 80.4615 30.2714C81.1847 29.5806 82.1488 29.3504 83.1318 29.1779C83.3171 29.1589 83.5397 29.1205 83.8178 29.1011C84.3928 29.0242 84.6521 28.9861 85.0788 28.9092C85.8576 28.7364 86.3398 28.4297 86.3398 27.6045C86.3398 27.029 85.8576 26.1848 84.3188 26.1848C83.0578 26.1848 82.3158 26.7413 82.1492 27.7388H80.1282C80.2393 26.3192 81.1295 24.6113 84.3004 24.6113C87.1006 24.6113 88.38 26.012 88.38 28.2374V32.2092H88.3792ZM81.8707 32.1323C81.8707 33.0339 82.5012 33.5519 83.6879 33.5519C85.4496 33.5519 86.3398 32.439 86.3398 30.386V29.6377C86.1357 29.887 85.7093 30.0598 85.3569 30.1942C85.1899 30.2707 84.6521 30.3666 84.4855 30.4244L84.0032 30.5204C83.7623 30.5588 83.5952 30.5778 83.5397 30.5972C82.6495 30.7891 81.8707 31.0962 81.8707 32.1323Z" fill="#CCCCCC"/>
<path d="M96.8554 34.8183V29.0238C96.8554 27.182 96.2062 26.4531 94.8896 26.4531C93.2766 26.4531 92.3492 27.6235 92.3492 29.9258V34.8183H90.2539V24.8606H92.3492V26.6449C92.72 25.7048 93.6102 24.6113 95.6316 24.6113C97.7641 24.6113 98.9695 25.8007 98.9695 28.4677V34.8187H96.8554V34.8183Z" fill="#CCCCCC"/>
<path d="M109.8 21.1914V34.814H107.686V33.3943C107 34.5072 105.943 35.0637 104.515 35.0637C101.9 35.0637 100.436 32.7613 100.436 29.8451C100.436 26.9288 101.9 24.6071 104.515 24.6071C105.943 24.6071 107 25.1635 107.686 26.2955V21.1914H109.8ZM107.686 29.8447C107.686 28.7512 107.445 27.8876 106.982 27.293C106.518 26.6981 105.888 26.3914 105.109 26.3914C104.33 26.3914 103.718 26.6981 103.236 27.293C102.772 27.8876 102.531 28.7512 102.531 29.8447C102.531 30.9382 102.772 31.8018 103.236 32.3963C103.718 32.9908 104.348 33.279 105.109 33.279C105.869 33.279 106.518 32.9912 106.982 32.3963C107.445 31.8014 107.686 30.9382 107.686 29.8447Z" fill="#CCCCCC"/>
<path d="M1.14489 9.45508V0.000532389H4.33949C5.0812 0.000532389 5.6875 0.13441 6.15838 0.402166C6.63234 0.666844 6.98319 1.02539 7.21094 1.47781C7.43868 1.93022 7.55256 2.43495 7.55256 2.99201C7.55256 3.54906 7.43868 4.05534 7.21094 4.51083C6.98627 4.96632 6.63849 5.32949 6.16761 5.60032C5.69673 5.86808 5.09351 6.00195 4.35795 6.00195H2.06818V4.98633H4.32102C4.82884 4.98633 5.23662 4.89861 5.54439 4.72319C5.85215 4.54776 6.07528 4.31078 6.21378 4.01225C6.35535 3.71064 6.42614 3.37056 6.42614 2.99201C6.42614 2.61346 6.35535 2.27492 6.21378 1.97638C6.07528 1.67785 5.85062 1.44395 5.53977 1.27468C5.22893 1.10233 4.81652 1.01616 4.30256 1.01616H2.28977V9.45508H1.14489ZM12.0536 9.60281C11.4135 9.60281 10.8518 9.45046 10.3686 9.14577C9.88849 8.84109 9.51302 8.41483 9.24219 7.86701C8.97443 7.31919 8.84055 6.67904 8.84055 5.94656C8.84055 5.20792 8.97443 4.56315 9.24219 4.01225C9.51302 3.46135 9.88849 3.03356 10.3686 2.72887C10.8518 2.42418 11.4135 2.27184 12.0536 2.27184C12.6938 2.27184 13.2539 2.42418 13.734 2.72887C14.2172 3.03356 14.5927 3.46135 14.8604 4.01225C15.1313 4.56315 15.2667 5.20792 15.2667 5.94656C15.2667 6.67904 15.1313 7.31919 14.8604 7.86701C14.5927 8.41483 14.2172 8.84109 13.734 9.14577C13.2539 9.45046 12.6938 9.60281 12.0536 9.60281ZM12.0536 8.62411C12.5399 8.62411 12.94 8.49947 13.2539 8.25018C13.5678 8.00089 13.8002 7.67312 13.951 7.26687C14.1018 6.86062 14.1772 6.42051 14.1772 5.94656C14.1772 5.4726 14.1018 5.03095 13.951 4.62163C13.8002 4.2123 13.5678 3.88145 13.2539 3.62908C12.94 3.37672 12.5399 3.25053 12.0536 3.25053C11.5674 3.25053 11.1673 3.37672 10.8533 3.62908C10.5394 3.88145 10.3071 4.2123 10.1562 4.62163C10.0054 5.03095 9.93004 5.4726 9.93004 5.94656C9.93004 6.42051 10.0054 6.86062 10.1562 7.26687C10.3071 7.67312 10.5394 8.00089 10.8533 8.25018C11.1673 8.49947 11.5674 8.62411 12.0536 8.62411ZM18.2951 9.45508L16.1346 2.36417H17.2795L18.8121 7.79315H18.886L20.4002 2.36417H21.5636L23.0593 7.77468H23.1332L24.6658 2.36417H25.8107L23.6502 9.45508H22.5792L21.0281 4.00763H20.9173L19.3661 9.45508H18.2951ZM29.9829 9.60281C29.2996 9.60281 28.7103 9.452 28.2148 9.15039C27.7223 8.8457 27.3422 8.42099 27.0745 7.87624C26.8098 7.32842 26.6775 6.69135 26.6775 5.96502C26.6775 5.2387 26.8098 4.59854 27.0745 4.04457C27.3422 3.48751 27.7146 3.05356 28.1917 2.74272C28.6718 2.4288 29.2319 2.27184 29.8721 2.27184C30.2414 2.27184 30.6061 2.33339 30.9662 2.4565C31.3263 2.5796 31.654 2.77965 31.9495 3.05664C32.2449 3.33055 32.4804 3.69371 32.6558 4.14613C32.8312 4.59854 32.9189 5.1556 32.9189 5.81729V6.27894H27.453V5.33718H31.811C31.811 4.93709 31.731 4.58008 31.5709 4.26616C31.414 3.95224 31.1893 3.70449 30.8969 3.5229C30.6076 3.34132 30.266 3.25053 29.8721 3.25053C29.4381 3.25053 29.0626 3.35825 28.7456 3.57369C28.4317 3.78604 28.1901 4.06303 28.0209 4.40465C27.8516 4.74627 27.767 5.11251 27.767 5.50337V6.13121C27.767 6.66673 27.8593 7.12068 28.0439 7.49308C28.2317 7.86239 28.4917 8.144 28.8241 8.33789C29.1565 8.52871 29.5428 8.62411 29.9829 8.62411C30.2691 8.62411 30.5276 8.5841 30.7584 8.50408C30.9923 8.42099 31.1939 8.29788 31.3632 8.13477C31.5325 7.96857 31.6633 7.76237 31.7556 7.51616L32.8082 7.81161C32.6974 8.16862 32.5112 8.48254 32.2496 8.75337C31.988 9.02113 31.6648 9.23041 31.2801 9.38121C30.8954 9.52894 30.463 9.60281 29.9829 9.60281ZM34.5763 9.45508V2.36417H35.6288V3.43519H35.7027C35.8319 3.08434 36.0658 2.79966 36.4044 2.58114C36.7429 2.36263 37.1246 2.25337 37.5493 2.25337C37.6293 2.25337 37.7293 2.25491 37.8493 2.25799C37.9694 2.26107 38.0602 2.26568 38.1217 2.27184V3.37979C38.0848 3.37056 38.0001 3.35671 37.8678 3.33825C37.7385 3.3167 37.6016 3.30593 37.4569 3.30593C37.1122 3.30593 36.8045 3.37826 36.5336 3.5229C36.2659 3.66448 36.0535 3.86145 35.8966 4.11381C35.7427 4.3631 35.6657 4.64779 35.6657 4.96786V9.45508H34.5763ZM42.1704 9.60281C41.4871 9.60281 40.8978 9.452 40.4023 9.15039C39.9098 8.8457 39.5297 8.42099 39.262 7.87624C38.9973 7.32842 38.865 6.69135 38.865 5.96502C38.865 5.2387 38.9973 4.59854 39.262 4.04457C39.5297 3.48751 39.9021 3.05356 40.3792 2.74272C40.8593 2.4288 41.4194 2.27184 42.0596 2.27184C42.4289 2.27184 42.7936 2.33339 43.1537 2.4565C43.5138 2.5796 43.8415 2.77965 44.137 3.05664C44.4324 3.33055 44.6679 3.69371 44.8433 4.14613C45.0187 4.59854 45.1064 5.1556 45.1064 5.81729V6.27894H39.6405V5.33718H43.9985C43.9985 4.93709 43.9185 4.58008 43.7584 4.26616C43.6015 3.95224 43.3768 3.70449 43.0844 3.5229C42.7951 3.34132 42.4535 3.25053 42.0596 3.25053C41.6256 3.25053 41.2501 3.35825 40.9331 3.57369C40.6192 3.78604 40.3776 4.06303 40.2084 4.40465C40.0391 4.74627 39.9545 5.11251 39.9545 5.50337V6.13121C39.9545 6.66673 40.0468 7.12068 40.2314 7.49308C40.4192 7.86239 40.6792 8.144 41.0116 8.33789C41.344 8.52871 41.7303 8.62411 42.1704 8.62411C42.4566 8.62411 42.7151 8.5841 42.9459 8.50408C43.1798 8.42099 43.3814 8.29788 43.5507 8.13477C43.72 7.96857 43.8508 7.76237 43.9431 7.51616L44.9957 7.81161C44.8849 8.16862 44.6987 8.48254 44.4371 8.75337C44.1755 9.02113 43.8523 9.23041 43.4676 9.38121C43.0829 9.52894 42.6505 9.60281 42.1704 9.60281ZM49.4413 9.60281C48.8504 9.60281 48.3287 9.45354 47.8763 9.15501C47.4239 8.8534 47.07 8.42868 46.8145 7.88086C46.5591 7.32996 46.4314 6.67904 46.4314 5.92809C46.4314 5.1833 46.5591 4.53699 46.8145 3.98917C47.07 3.44135 47.4255 3.01817 47.8809 2.71964C48.3364 2.42111 48.8627 2.27184 49.4598 2.27184C49.9214 2.27184 50.2861 2.34878 50.5539 2.50266C50.8247 2.65347 51.0309 2.82582 51.1725 3.01971C51.3171 3.21052 51.4295 3.36748 51.5095 3.49059H51.6018V0.000532389H52.6913V9.45508H51.6388V8.36559H51.5095C51.4295 8.49485 51.3156 8.65797 51.1679 8.85494C51.0202 9.04883 50.8093 9.22272 50.5354 9.3766C50.2615 9.5274 49.8968 9.60281 49.4413 9.60281ZM49.589 8.62411C50.0261 8.62411 50.3954 8.51024 50.697 8.28249C50.9986 8.05167 51.2279 7.73313 51.3849 7.32688C51.5418 6.91755 51.6203 6.44513 51.6203 5.90962C51.6203 5.38027 51.5434 4.91708 51.3895 4.52006C51.2356 4.11997 51.0078 3.80913 50.7062 3.58754C50.4046 3.36287 50.0322 3.25053 49.589 3.25053C49.1274 3.25053 48.7427 3.36902 48.4349 3.606C48.1302 3.8399 47.901 4.15844 47.7471 4.56161C47.5963 4.96171 47.5209 5.41104 47.5209 5.90962C47.5209 6.41436 47.5978 6.87293 47.7517 7.28533C47.9086 7.69466 48.1395 8.02089 48.4442 8.26403C48.7519 8.50408 49.1336 8.62411 49.589 8.62411ZM58.642 9.45508V0.000532389H59.7314V3.49059H59.8238C59.9038 3.36748 60.0146 3.21052 60.1562 3.01971C60.3008 2.82582 60.507 2.65347 60.7748 2.50266C61.0456 2.34878 61.4118 2.27184 61.8735 2.27184C62.4706 2.27184 62.9968 2.42111 63.4523 2.71964C63.9078 3.01817 64.2633 3.44135 64.5187 3.98917C64.7742 4.53699 64.9019 5.1833 64.9019 5.92809C64.9019 6.67904 64.7742 7.32996 64.5187 7.88086C64.2633 8.42868 63.9094 8.8534 63.4569 9.15501C63.0045 9.45354 62.4829 9.60281 61.892 9.60281C61.4365 9.60281 61.0718 9.5274 60.7979 9.3766C60.5239 9.22272 60.3131 9.04883 60.1654 8.85494C60.0177 8.65797 59.9038 8.49485 59.8238 8.36559H59.6945V9.45508H58.642ZM59.713 5.90962C59.713 6.44513 59.7915 6.91755 59.9484 7.32688C60.1054 7.73313 60.3347 8.05167 60.6363 8.28249C60.9379 8.51024 61.3072 8.62411 61.7442 8.62411C62.1997 8.62411 62.5798 8.50408 62.8845 8.26403C63.1923 8.02089 63.4231 7.69466 63.577 7.28533C63.7339 6.87293 63.8124 6.41436 63.8124 5.90962C63.8124 5.41104 63.7355 4.96171 63.5816 4.56161C63.4308 4.15844 63.2015 3.8399 62.8937 3.606C62.589 3.36902 62.2059 3.25053 61.7442 3.25053C61.301 3.25053 60.9287 3.36287 60.627 3.58754C60.3254 3.80913 60.0977 4.11997 59.9438 4.52006C59.7899 4.91708 59.713 5.38027 59.713 5.90962ZM67.0162 12.1142C66.8316 12.1142 66.6669 12.0988 66.5223 12.068C66.3776 12.0403 66.2776 12.0126 66.2222 11.9849L66.4992 11.0247C66.7639 11.0924 66.9978 11.117 67.2009 11.0985C67.404 11.0801 67.5841 10.9893 67.741 10.8262C67.9011 10.6661 68.0473 10.4061 68.1796 10.046L68.3827 9.49201L65.7606 2.36417H66.9424L68.8998 8.01474H68.9736L70.931 2.36417H72.1128L69.1029 10.4892C68.9675 10.8554 68.7997 11.1586 68.5997 11.3986C68.3997 11.6417 68.1673 11.8218 67.9026 11.9387C67.641 12.0557 67.3456 12.1142 67.0162 12.1142Z" fill="#999999"/>
</svg>
